<svg width="1087" height="135" viewBox="0 0 1087 135" fill="none" xmlns="http://www.w3.org/2000/svg">
<path d="M78.98 103V31.72H96.476V103H78.98ZM36.32 103V31.72H53.816V103H36.32ZM49.388 74.488V59.8H88.16V74.488H49.388ZM131.762 104.512C126.362 104.512 121.826 103.756 118.154 102.244C114.554 100.66 111.638 98.536 109.406 95.872C107.174 93.136 105.554 90.04 104.546 86.584C103.61 83.128 103.142 79.492 103.142 75.676C103.142 71.572 103.646 67.648 104.654 63.904C105.734 60.16 107.354 56.848 109.514 53.968C111.746 51.016 114.59 48.712 118.046 47.056C121.574 45.328 125.786 44.464 130.682 44.464C135.578 44.464 139.754 45.328 143.21 47.056C146.738 48.712 149.546 51.052 151.634 54.076C153.722 57.1 155.054 60.592 155.63 64.552C156.278 68.512 156.206 72.796 155.414 77.404L114.05 78.052V68.548L142.022 68.008L139.754 73.516C140.186 70.204 140.114 67.432 139.538 65.2C139.034 62.896 138.062 61.168 136.622 60.016C135.182 58.792 133.202 58.18 130.682 58.18C128.018 58.18 125.894 58.864 124.31 60.232C122.726 61.6 121.61 63.544 120.962 66.064C120.314 68.512 119.99 71.428 119.99 74.812C119.99 80.644 120.962 84.892 122.906 87.556C124.85 90.22 127.838 91.552 131.87 91.552C133.598 91.552 135.038 91.336 136.19 90.904C137.342 90.472 138.278 89.86 138.998 89.068C139.718 88.204 140.222 87.196 140.51 86.044C140.798 84.82 140.906 83.452 140.834 81.94L156.818 82.804C157.034 85.18 156.782 87.628 156.062 90.148C155.414 92.668 154.154 95.008 152.282 97.168C150.41 99.328 147.782 101.092 144.398 102.46C141.086 103.828 136.874 104.512 131.762 104.512ZM177.673 104.512C174.793 104.512 172.057 104.008 169.465 103C166.873 101.992 164.749 100.372 163.093 98.14C161.437 95.836 160.609 92.776 160.609 88.96C160.609 85.432 161.293 82.588 162.661 80.428C164.029 78.196 165.865 76.432 168.169 75.136C170.473 73.768 172.993 72.76 175.729 72.112C178.465 71.392 181.165 70.78 183.829 70.276C187.573 69.556 190.381 68.98 192.253 68.548C194.125 68.116 195.385 67.612 196.033 67.036C196.753 66.46 197.113 65.668 197.113 64.66C197.113 62.572 196.321 60.988 194.737 59.908C193.225 58.828 191.209 58.288 188.689 58.288C187.105 58.288 185.521 58.576 183.937 59.152C182.353 59.728 181.057 60.772 180.049 62.284C179.041 63.724 178.573 65.812 178.645 68.548L163.093 67.468C162.949 62.932 163.633 59.188 165.145 56.236C166.657 53.212 168.709 50.872 171.301 49.216C173.965 47.488 176.845 46.264 179.941 45.544C183.109 44.824 186.241 44.464 189.337 44.464C195.025 44.464 199.705 45.544 203.377 47.704C207.049 49.792 209.749 52.852 211.477 56.884C213.277 60.844 214.177 65.668 214.177 71.356V81.508C214.177 83.884 214.177 86.296 214.177 88.744C214.177 91.12 214.177 93.496 214.177 95.872C214.177 98.248 214.177 100.624 214.177 103H199.057C199.057 100.408 199.057 97.78 199.057 95.116C199.057 92.452 199.057 89.644 199.057 86.692H198.409C198.121 89.932 197.041 92.92 195.169 95.656C193.369 98.32 190.957 100.48 187.933 102.136C184.981 103.72 181.561 104.512 177.673 104.512ZM184.909 91.768C186.133 91.768 187.429 91.552 188.797 91.12C190.237 90.616 191.569 89.824 192.793 88.744C194.089 87.664 195.133 86.188 195.925 84.316C196.717 82.372 197.113 79.996 197.113 77.188V74.596L200.029 74.272C199.453 75.208 198.481 75.964 197.113 76.54C195.817 77.116 194.341 77.584 192.685 77.944C191.029 78.232 189.337 78.556 187.609 78.916C185.953 79.204 184.405 79.636 182.965 80.212C181.525 80.716 180.337 81.436 179.401 82.372C178.537 83.236 178.105 84.46 178.105 86.044C178.105 87.916 178.753 89.356 180.049 90.364C181.417 91.3 183.037 91.768 184.909 91.768ZM221.302 103V72.004V45.976H236.422V68.656H237.286C237.718 62.608 238.546 57.856 239.77 54.4C241.066 50.872 242.65 48.388 244.522 46.948C246.466 45.436 248.626 44.68 251.002 44.68C252.298 44.68 253.63 44.86 254.998 45.22C256.438 45.58 257.842 46.156 259.21 46.948L258.346 66.388C256.762 65.452 255.214 64.768 253.702 64.336C252.19 63.832 250.75 63.58 249.382 63.58C247.078 63.58 245.134 64.228 243.55 65.524C241.966 66.82 240.742 68.728 239.878 71.248C239.086 73.768 238.69 76.828 238.69 80.428V103H221.302ZM264.544 103V45.976H282.04V103H264.544ZM273.184 41.872C269.872 41.872 267.316 41.188 265.516 39.82C263.788 38.38 262.924 36.328 262.924 33.664C262.924 30.928 263.788 28.876 265.516 27.508C267.316 26.068 269.872 25.348 273.184 25.348C276.568 25.348 279.124 26.068 280.852 27.508C282.652 28.948 283.552 31 283.552 33.664C283.552 36.256 282.652 38.272 280.852 39.712C279.124 41.152 276.568 41.872 273.184 41.872ZM289.857 103V70.708V45.976H304.653V69.196H305.517C305.949 63.58 306.885 58.972 308.325 55.372C309.765 51.7 311.817 48.964 314.481 47.164C317.145 45.364 320.529 44.464 324.633 44.464C330.825 44.464 335.469 46.516 338.565 50.62C341.733 54.724 343.317 60.844 343.317 68.98V103H325.821V71.248C325.821 67.36 325.209 64.444 323.985 62.5C322.833 60.556 320.961 59.584 318.369 59.584C316.209 59.584 314.301 60.34 312.645 61.852C310.989 63.364 309.693 65.812 308.757 69.196C307.821 72.58 307.353 77.116 307.353 82.804V103H289.857ZM373.073 120.064C366.665 120.064 361.589 119.56 357.845 118.552C354.101 117.544 351.437 116.14 349.853 114.34C348.269 112.612 347.477 110.596 347.477 108.292C347.477 105.124 348.737 102.604 351.257 100.732C353.777 98.788 357.449 97.456 362.273 96.736V96.196C358.601 96.196 355.721 95.584 353.633 94.36C351.545 93.064 350.501 91.3 350.501 89.068C350.501 86.98 351.437 85.108 353.309 83.452C355.253 81.796 358.385 80.968 362.705 80.968V80.212C358.817 79.276 355.721 77.476 353.417 74.812C351.113 72.148 349.961 68.692 349.961 64.444C349.961 60.7 350.897 57.46 352.769 54.724C354.713 51.988 357.521 49.864 361.193 48.352C364.865 46.768 369.329 45.976 374.585 45.976H402.989V59.368L383.441 56.884V57.748C389.417 58.54 393.449 59.908 395.537 61.852C397.697 63.724 398.777 65.992 398.777 68.656C398.777 71.32 397.949 73.696 396.293 75.784C394.709 77.872 392.225 79.528 388.841 80.752C385.457 81.904 381.173 82.48 375.989 82.48C374.405 82.48 372.785 82.408 371.129 82.264C369.545 82.12 368.177 81.904 367.025 81.616C365.801 82.12 364.829 82.66 364.109 83.236C363.461 83.74 363.137 84.28 363.137 84.856C363.137 85.216 363.281 85.504 363.569 85.72C363.857 85.864 364.253 85.972 364.757 86.044C365.333 86.116 365.981 86.152 366.701 86.152H383.981C385.493 86.152 387.365 86.26 389.597 86.476C391.901 86.62 394.169 87.16 396.401 88.096C398.705 88.96 400.613 90.436 402.125 92.524C403.637 94.612 404.393 97.564 404.393 101.38C404.393 105.7 403.241 109.228 400.937 111.964C398.705 114.7 395.285 116.716 390.677 118.012C386.069 119.38 380.201 120.064 373.073 120.064ZM373.073 104.728C377.897 104.728 381.461 104.548 383.765 104.188C386.069 103.9 387.581 103.468 388.301 102.892C389.021 102.316 389.381 101.668 389.381 100.948C389.381 99.94 389.093 99.148 388.517 98.572C387.941 97.996 387.221 97.6 386.357 97.384C385.493 97.096 384.629 96.952 383.765 96.952C382.973 96.88 382.325 96.844 381.821 96.844H367.241C364.937 97.636 363.353 98.392 362.489 99.112C361.697 99.76 361.301 100.516 361.301 101.38C361.301 102.388 361.769 103.108 362.705 103.54C363.713 104.044 365.081 104.368 366.809 104.512C368.609 104.656 370.697 104.728 373.073 104.728ZM374.909 72.976C377.213 72.976 378.977 72.256 380.201 70.816C381.497 69.376 382.145 67.396 382.145 64.876C382.145 62.356 381.497 60.34 380.201 58.828C378.905 57.244 377.105 56.452 374.801 56.452C372.569 56.452 370.769 57.244 369.401 58.828C368.105 60.34 367.457 62.356 367.457 64.876C367.457 66.532 367.745 67.972 368.321 69.196C368.897 70.42 369.725 71.356 370.805 72.004C371.957 72.652 373.325 72.976 374.909 72.976ZM440.136 103V88.42H458.604C461.34 88.42 463.86 87.844 466.164 86.692C468.54 85.54 470.448 83.488 471.888 80.536C473.328 77.512 474.048 73.192 474.048 67.576C474.048 63.544 473.652 60.16 472.86 57.424C472.068 54.688 470.916 52.528 469.404 50.944C467.964 49.288 466.164 48.1 464.004 47.38C461.916 46.66 459.504 46.3 456.768 46.3H440.136V31.72H456.012C464.436 31.72 471.312 33.124 476.64 35.932C481.968 38.74 485.892 42.772 488.412 48.028C490.932 53.212 492.192 59.44 492.192 66.712C492.192 72.328 491.544 77.188 490.248 81.292C489.024 85.396 487.296 88.852 485.064 91.66C482.832 94.468 480.312 96.7 477.504 98.356C474.696 100.012 471.708 101.2 468.54 101.92C465.372 102.64 462.24 103 459.144 103H440.136ZM432.144 103V31.72H449.64V103H432.144ZM512.853 104.512C509.973 104.512 507.237 104.008 504.645 103C502.053 101.992 499.929 100.372 498.273 98.14C496.617 95.836 495.789 92.776 495.789 88.96C495.789 85.432 496.473 82.588 497.841 80.428C499.209 78.196 501.045 76.432 503.349 75.136C505.653 73.768 508.173 72.76 510.909 72.112C513.645 71.392 516.345 70.78 519.009 70.276C522.753 69.556 525.561 68.98 527.433 68.548C529.305 68.116 530.565 67.612 531.213 67.036C531.933 66.46 532.293 65.668 532.293 64.66C532.293 62.572 531.501 60.988 529.917 59.908C528.405 58.828 526.389 58.288 523.869 58.288C522.285 58.288 520.701 58.576 519.117 59.152C517.533 59.728 516.237 60.772 515.229 62.284C514.221 63.724 513.753 65.812 513.825 68.548L498.273 67.468C498.129 62.932 498.813 59.188 500.325 56.236C501.837 53.212 503.889 50.872 506.481 49.216C509.145 47.488 512.025 46.264 515.121 45.544C518.289 44.824 521.421 44.464 524.517 44.464C530.205 44.464 534.885 45.544 538.557 47.704C542.229 49.792 544.929 52.852 546.657 56.884C548.457 60.844 549.357 65.668 549.357 71.356V81.508C549.357 83.884 549.357 86.296 549.357 88.744C549.357 91.12 549.357 93.496 549.357 95.872C549.357 98.248 549.357 100.624 549.357 103H534.237C534.237 100.408 534.237 97.78 534.237 95.116C534.237 92.452 534.237 89.644 534.237 86.692H533.589C533.301 89.932 532.221 92.92 530.349 95.656C528.549 98.32 526.137 100.48 523.113 102.136C520.161 103.72 516.741 104.512 512.853 104.512ZM520.089 91.768C521.313 91.768 522.609 91.552 523.977 91.12C525.417 90.616 526.749 89.824 527.973 88.744C529.269 87.664 530.313 86.188 531.105 84.316C531.897 82.372 532.293 79.996 532.293 77.188V74.596L535.209 74.272C534.633 75.208 533.661 75.964 532.293 76.54C530.997 77.116 529.521 77.584 527.865 77.944C526.209 78.232 524.517 78.556 522.789 78.916C521.133 79.204 519.585 79.636 518.145 80.212C516.705 80.716 515.517 81.436 514.581 82.372C513.717 83.236 513.285 84.46 513.285 86.044C513.285 87.916 513.933 89.356 515.229 90.364C516.597 91.3 518.217 91.768 520.089 91.768ZM579.27 104.296C572.574 104.296 567.57 102.604 564.258 99.22C561.018 95.764 559.398 90.436 559.398 83.236V59.584H553.134V48.568H553.458C557.922 47.992 561.09 46.516 562.962 44.14C564.834 41.692 565.986 38.02 566.418 33.124V32.908H576.678V45.976H589.746V60.016H576.678V81.616C576.678 84.352 577.326 86.296 578.622 87.448C579.99 88.6 581.646 89.176 583.59 89.176C584.598 89.176 585.642 89.032 586.722 88.744C587.802 88.456 588.81 88.06 589.746 87.556V102.784C587.514 103.432 585.534 103.828 583.806 103.972C582.078 104.188 580.566 104.296 579.27 104.296ZM610.939 104.512C608.059 104.512 605.323 104.008 602.731 103C600.139 101.992 598.015 100.372 596.359 98.14C594.703 95.836 593.875 92.776 593.875 88.96C593.875 85.432 594.559 82.588 595.927 80.428C597.295 78.196 599.131 76.432 601.435 75.136C603.739 73.768 606.259 72.76 608.995 72.112C611.731 71.392 614.431 70.78 617.095 70.276C620.839 69.556 623.647 68.98 625.519 68.548C627.391 68.116 628.651 67.612 629.299 67.036C630.019 66.46 630.379 65.668 630.379 64.66C630.379 62.572 629.587 60.988 628.003 59.908C626.491 58.828 624.475 58.288 621.955 58.288C620.371 58.288 618.787 58.576 617.203 59.152C615.619 59.728 614.323 60.772 613.315 62.284C612.307 63.724 611.839 65.812 611.911 68.548L596.359 67.468C596.215 62.932 596.899 59.188 598.411 56.236C599.923 53.212 601.975 50.872 604.567 49.216C607.231 47.488 610.111 46.264 613.207 45.544C616.375 44.824 619.507 44.464 622.603 44.464C628.291 44.464 632.971 45.544 636.643 47.704C640.315 49.792 643.015 52.852 644.743 56.884C646.543 60.844 647.443 65.668 647.443 71.356V81.508C647.443 83.884 647.443 86.296 647.443 88.744C647.443 91.12 647.443 93.496 647.443 95.872C647.443 98.248 647.443 100.624 647.443 103H632.323C632.323 100.408 632.323 97.78 632.323 95.116C632.323 92.452 632.323 89.644 632.323 86.692H631.675C631.387 89.932 630.307 92.92 628.435 95.656C626.635 98.32 624.223 100.48 621.199 102.136C618.247 103.72 614.827 104.512 610.939 104.512ZM618.175 91.768C619.399 91.768 620.695 91.552 622.063 91.12C623.503 90.616 624.835 89.824 626.059 88.744C627.355 87.664 628.399 86.188 629.191 84.316C629.983 82.372 630.379 79.996 630.379 77.188V74.596L633.295 74.272C632.719 75.208 631.747 75.964 630.379 76.54C629.083 77.116 627.607 77.584 625.951 77.944C624.295 78.232 622.603 78.556 620.875 78.916C619.219 79.204 617.671 79.636 616.231 80.212C614.791 80.716 613.603 81.436 612.667 82.372C611.803 83.236 611.371 84.46 611.371 86.044C611.371 87.916 612.019 89.356 613.315 90.364C614.683 91.3 616.303 91.768 618.175 91.768ZM704.909 104.512C699.869 104.512 695.441 103.936 691.625 102.784C687.881 101.632 684.749 99.976 682.229 97.816C679.709 95.656 677.837 93.064 676.613 90.04C675.461 86.944 674.957 83.524 675.101 79.78L691.301 76.216C691.445 79.528 692.129 82.228 693.353 84.316C694.649 86.332 696.377 87.844 698.537 88.852C700.697 89.788 703.109 90.256 705.773 90.256C707.933 90.256 709.841 90.004 711.497 89.5C713.153 88.924 714.449 88.168 715.385 87.232C716.393 86.224 716.897 85.072 716.897 83.776C716.897 82.048 716.249 80.644 714.953 79.564C713.657 78.412 711.857 77.44 709.553 76.648C707.321 75.856 704.765 75.064 701.885 74.272C698.789 73.408 695.693 72.472 692.597 71.464C689.573 70.384 686.801 69.052 684.281 67.468C681.761 65.884 679.709 63.832 678.125 61.312C676.613 58.792 675.857 55.66 675.857 51.916C675.857 47.308 677.009 43.384 679.313 40.144C681.689 36.904 684.929 34.456 689.033 32.8C693.209 31.072 697.961 30.208 703.289 30.208C708.905 30.208 713.909 31.18 718.301 33.124C722.693 34.996 726.077 37.768 728.453 41.44C730.829 45.112 731.765 49.612 731.261 54.94L715.277 57.532C715.349 55.372 715.133 53.464 714.629 51.808C714.125 50.152 713.333 48.748 712.253 47.596C711.245 46.444 709.949 45.58 708.365 45.004C706.781 44.356 704.909 44.032 702.749 44.032C700.517 44.032 698.645 44.32 697.133 44.896C695.693 45.472 694.577 46.264 693.785 47.272C693.065 48.28 692.705 49.432 692.705 50.728C692.705 52.24 693.281 53.5 694.433 54.508C695.585 55.516 697.241 56.416 699.401 57.208C701.561 57.928 704.117 58.684 707.069 59.476C710.165 60.34 713.261 61.312 716.357 62.392C719.525 63.4 722.441 64.768 725.105 66.496C727.769 68.152 729.893 70.312 731.477 72.976C733.133 75.64 733.961 79.024 733.961 83.128C733.961 87.88 732.701 91.84 730.181 95.008C727.733 98.176 724.313 100.552 719.921 102.136C715.601 103.72 710.597 104.512 704.909 104.512ZM767.005 104.512C761.893 104.512 757.501 103.756 753.829 102.244C750.157 100.66 747.169 98.5 744.865 95.764C742.561 93.028 740.869 89.896 739.789 86.368C738.709 82.84 738.169 79.096 738.169 75.136C738.169 71.104 738.709 67.288 739.789 63.688C740.869 60.016 742.525 56.74 744.757 53.86C747.061 50.908 750.013 48.604 753.613 46.948C757.285 45.292 761.677 44.464 766.789 44.464C772.837 44.464 777.697 45.616 781.369 47.92C785.113 50.152 787.705 53.068 789.145 56.668C790.657 60.268 791.089 64.156 790.441 68.332L775.321 69.52C775.465 66.928 775.177 64.804 774.457 63.148C773.809 61.42 772.801 60.16 771.433 59.368C770.065 58.504 768.409 58.072 766.465 58.072C764.737 58.072 763.189 58.396 761.821 59.044C760.525 59.692 759.409 60.7 758.473 62.068C757.609 63.364 756.925 65.02 756.421 67.036C755.989 69.052 755.773 71.464 755.773 74.272C755.773 77.872 756.169 80.968 756.961 83.56C757.825 86.152 759.085 88.132 760.741 89.5C762.469 90.868 764.629 91.552 767.221 91.552C769.885 91.552 771.901 90.904 773.269 89.608C774.637 88.312 775.537 86.692 775.969 84.748C776.401 82.732 776.473 80.752 776.185 78.808L792.277 79.564C792.709 82.732 792.565 85.828 791.845 88.852C791.125 91.804 789.721 94.468 787.633 96.844C785.617 99.22 782.881 101.092 779.425 102.46C776.041 103.828 771.901 104.512 767.005 104.512ZM797.9 103V45.976H815.396V103H797.9ZM806.54 41.872C803.228 41.872 800.672 41.188 798.872 39.82C797.144 38.38 796.28 36.328 796.28 33.664C796.28 30.928 797.144 28.876 798.872 27.508C800.672 26.068 803.228 25.348 806.54 25.348C809.924 25.348 812.48 26.068 814.208 27.508C816.008 28.948 816.908 31 816.908 33.664C816.908 36.256 816.008 38.272 814.208 39.712C812.48 41.152 809.924 41.872 806.54 41.872ZM850.32 104.512C844.92 104.512 840.384 103.756 836.712 102.244C833.112 100.66 830.196 98.536 827.964 95.872C825.732 93.136 824.112 90.04 823.104 86.584C822.168 83.128 821.7 79.492 821.7 75.676C821.7 71.572 822.204 67.648 823.212 63.904C824.292 60.16 825.912 56.848 828.072 53.968C830.304 51.016 833.148 48.712 836.604 47.056C840.132 45.328 844.344 44.464 849.24 44.464C854.136 44.464 858.312 45.328 861.768 47.056C865.296 48.712 868.104 51.052 870.192 54.076C872.28 57.1 873.612 60.592 874.188 64.552C874.836 68.512 874.764 72.796 873.972 77.404L832.608 78.052V68.548L860.58 68.008L858.312 73.516C858.744 70.204 858.672 67.432 858.096 65.2C857.592 62.896 856.62 61.168 855.18 60.016C853.74 58.792 851.76 58.18 849.24 58.18C846.576 58.18 844.452 58.864 842.868 60.232C841.284 61.6 840.168 63.544 839.52 66.064C838.872 68.512 838.548 71.428 838.548 74.812C838.548 80.644 839.52 84.892 841.464 87.556C843.408 90.22 846.396 91.552 850.428 91.552C852.156 91.552 853.596 91.336 854.748 90.904C855.9 90.472 856.836 89.86 857.556 89.068C858.276 88.204 858.78 87.196 859.068 86.044C859.356 84.82 859.464 83.452 859.392 81.94L875.376 82.804C875.592 85.18 875.34 87.628 874.62 90.148C873.972 92.668 872.712 95.008 870.84 97.168C868.968 99.328 866.34 101.092 862.956 102.46C859.644 103.828 855.432 104.512 850.32 104.512ZM881.431 103V70.708V45.976H896.227V69.196H897.091C897.523 63.58 898.459 58.972 899.899 55.372C901.339 51.7 903.391 48.964 906.055 47.164C908.719 45.364 912.103 44.464 916.207 44.464C922.399 44.464 927.043 46.516 930.139 50.62C933.307 54.724 934.891 60.844 934.891 68.98V103H917.395V71.248C917.395 67.36 916.783 64.444 915.559 62.5C914.407 60.556 912.535 59.584 909.943 59.584C907.783 59.584 905.875 60.34 904.219 61.852C902.563 63.364 901.267 65.812 900.331 69.196C899.395 72.58 898.927 77.116 898.927 82.804V103H881.431ZM969.4 104.512C964.288 104.512 959.896 103.756 956.224 102.244C952.552 100.66 949.564 98.5 947.26 95.764C944.956 93.028 943.264 89.896 942.184 86.368C941.104 82.84 940.564 79.096 940.564 75.136C940.564 71.104 941.104 67.288 942.184 63.688C943.264 60.016 944.92 56.74 947.152 53.86C949.456 50.908 952.408 48.604 956.008 46.948C959.68 45.292 964.072 44.464 969.184 44.464C975.232 44.464 980.092 45.616 983.764 47.92C987.508 50.152 990.1 53.068 991.54 56.668C993.052 60.268 993.484 64.156 992.836 68.332L977.716 69.52C977.86 66.928 977.572 64.804 976.852 63.148C976.204 61.42 975.196 60.16 973.828 59.368C972.46 58.504 970.804 58.072 968.86 58.072C967.132 58.072 965.584 58.396 964.216 59.044C962.92 59.692 961.804 60.7 960.868 62.068C960.004 63.364 959.32 65.02 958.816 67.036C958.384 69.052 958.168 71.464 958.168 74.272C958.168 77.872 958.564 80.968 959.356 83.56C960.22 86.152 961.48 88.132 963.136 89.5C964.864 90.868 967.024 91.552 969.616 91.552C972.28 91.552 974.296 90.904 975.664 89.608C977.032 88.312 977.932 86.692 978.364 84.748C978.796 82.732 978.868 80.752 978.58 78.808L994.672 79.564C995.104 82.732 994.96 85.828 994.24 88.852C993.52 91.804 992.116 94.468 990.028 96.844C988.012 99.22 985.276 101.092 981.82 102.46C978.436 103.828 974.296 104.512 969.4 104.512ZM1027.4 104.512C1022 104.512 1017.47 103.756 1013.79 102.244C1010.19 100.66 1007.28 98.536 1005.05 95.872C1002.81 93.136 1001.19 90.04 1000.19 86.584C999.25 83.128 998.782 79.492 998.782 75.676C998.782 71.572 999.286 67.648 1000.29 63.904C1001.37 60.16 1002.99 56.848 1005.15 53.968C1007.39 51.016 1010.23 48.712 1013.69 47.056C1017.21 45.328 1021.43 44.464 1026.32 44.464C1031.22 44.464 1035.39 45.328 1038.85 47.056C1042.38 48.712 1045.19 51.052 1047.27 54.076C1049.36 57.1 1050.69 60.592 1051.27 64.552C1051.92 68.512 1051.85 72.796 1051.05 77.404L1009.69 78.052V68.548L1037.66 68.008L1035.39 73.516C1035.83 70.204 1035.75 67.432 1035.18 65.2C1034.67 62.896 1033.7 61.168 1032.26 60.016C1030.82 58.792 1028.84 58.18 1026.32 58.18C1023.66 58.18 1021.53 58.864 1019.95 60.232C1018.37 61.6 1017.25 63.544 1016.6 66.064C1015.95 68.512 1015.63 71.428 1015.63 74.812C1015.63 80.644 1016.6 84.892 1018.55 87.556C1020.49 90.22 1023.48 91.552 1027.51 91.552C1029.24 91.552 1030.68 91.336 1031.83 90.904C1032.98 90.472 1033.92 89.86 1034.64 89.068C1035.36 88.204 1035.86 87.196 1036.15 86.044C1036.44 84.82 1036.55 83.452 1036.47 81.94L1052.46 82.804C1052.67 85.18 1052.42 87.628 1051.7 90.148C1051.05 92.668 1049.79 95.008 1047.92 97.168C1046.05 99.328 1043.42 101.092 1040.04 102.46C1036.73 103.828 1032.51 104.512 1027.4 104.512Z" fill="#141414"/>
</svg>
